<svg width="212" height="45" viewBox="0 0 212 45" fill="none" xmlns="http://www.w3.org/2000/svg">
<path fill-rule="evenodd" clip-rule="evenodd" d="M113.678 1.55957C113.678 1.55957 113.402 1.41041 112.906 1.37312L112.741 1.35447V1.29854L112.116 1.2426C112.08 1.20531 112.024 1.18666 112.024 1.18666L111.602 1.13072L111.418 0.88833C111.235 0.683228 110.959 0.795102 110.959 0.795102L109.802 1.09343C109.563 1.18666 109.508 1.37312 109.49 1.48499C109.49 1.50364 109.49 1.54093 109.471 1.57822L108.241 2.39863L107.488 2.90206C102.382 5.99725 99.2592 11.3859 98.5612 14.4251C97.7163 12.5046 97.7347 10.2298 98.8 8.23474C99.9388 6.12777 102.014 4.84122 104.218 4.65476C104.604 4.30049 105.008 3.96487 105.412 3.64789C102.437 3.42414 99.4796 4.93445 97.9551 7.74995C97.3306 8.90598 97.0184 10.1366 97 11.3672V20.7646H97.9551V15.3574C98.6531 16.6626 99.7 17.7813 101.078 18.5458C104.861 20.6528 109.637 19.2543 111.712 15.3947C113.788 11.5537 112.41 6.70579 108.608 4.59882C108.333 4.44966 108.057 4.31914 107.763 4.18862C107.524 4.44966 107.304 4.7107 107.084 4.99039C107.433 5.1209 107.782 5.27007 108.131 5.45653C111.455 7.30245 112.667 11.535 110.849 14.8913C109.6 17.2033 106.735 17.9305 104.714 16.1592C102.988 14.6489 103.006 12.2249 103.631 10.1552C104.2 8.32797 105.247 6.48204 106.312 5.06497C106.771 4.44966 107.249 3.87164 107.763 3.34956L107.929 3.6106L108.406 3.21904L109.012 4.00216C109.251 4.30049 109.527 4.09539 109.527 4.09539L110.629 3.34956C110.867 3.18175 110.941 2.97665 110.941 2.97665C111.124 3.03259 111.382 2.80884 111.382 2.80884C111.565 2.65967 111.565 2.58509 111.565 2.58509C111.565 2.58509 111.676 2.26811 111.712 2.11895C111.767 1.98843 111.804 1.95114 111.951 1.91384C112.024 1.8952 112.061 1.83926 112.098 1.82062H112.741L112.759 1.76468C112.759 1.76468 113.255 1.70874 113.531 1.85791L114.853 2.52915L115 2.19353L113.678 1.55957ZM109.986 3.38685L109.453 3.75977C109.398 3.79706 109.343 3.81571 109.288 3.81571C109.196 3.79706 109.141 3.72248 109.122 3.68519L109.104 3.66654L108.829 2.99529L109.784 2.23082C109.839 2.17488 109.912 2.15624 109.967 2.15624C109.967 2.15624 109.986 2.15624 110.004 2.15624C110.151 2.15624 110.261 2.24946 110.298 2.3054C110.353 2.37998 110.371 2.45457 110.39 2.51051L110.298 2.47322C110.298 2.47322 109.986 2.32405 109.802 2.64103L109.324 3.46144C109.324 3.46144 109.233 3.59195 109.324 3.64789C109.416 3.70383 109.527 3.55466 109.527 3.55466L109.967 2.88342C109.967 2.88342 110.078 2.71561 110.224 2.79019L110.408 2.88342C110.39 2.93936 110.371 2.99529 110.335 3.05123C110.316 3.06988 110.206 3.21904 109.986 3.38685Z" fill="#E9AB3C"/>
<path d="M73.9196 26.8846C73.9196 27.238 73.8362 27.5713 73.6696 27.8846C73.5029 28.198 73.2362 28.4546 72.8696 28.6546C72.5029 28.848 72.0329 28.9446 71.4596 28.9446H70.1996V31.7646H69.0596V24.8146H71.4596C71.9929 24.8146 72.4429 24.908 72.8096 25.0946C73.1829 25.2746 73.4596 25.5213 73.6396 25.8346C73.8262 26.148 73.9196 26.498 73.9196 26.8846ZM71.4596 28.0146C71.8929 28.0146 72.2162 27.918 72.4296 27.7246C72.6429 27.5246 72.7496 27.2446 72.7496 26.8846C72.7496 26.1246 72.3196 25.7446 71.4596 25.7446H70.1996V28.0146H71.4596ZM77.3968 31.8546C76.8768 31.8546 76.4068 31.738 75.9868 31.5046C75.5668 31.2646 75.2368 30.9313 74.9968 30.5046C74.7568 30.0713 74.6368 29.5713 74.6368 29.0046C74.6368 28.4446 74.7602 27.948 75.0068 27.5146C75.2535 27.0813 75.5902 26.748 76.0168 26.5146C76.4435 26.2813 76.9202 26.1646 77.4468 26.1646C77.9735 26.1646 78.4502 26.2813 78.8768 26.5146C79.3035 26.748 79.6402 27.0813 79.8868 27.5146C80.1335 27.948 80.2568 28.4446 80.2568 29.0046C80.2568 29.5646 80.1302 30.0613 79.8768 30.4946C79.6235 30.928 79.2768 31.2646 78.8368 31.5046C78.4035 31.738 77.9235 31.8546 77.3968 31.8546ZM77.3968 30.8646C77.6902 30.8646 77.9635 30.7946 78.2168 30.6546C78.4768 30.5146 78.6868 30.3046 78.8468 30.0246C79.0068 29.7446 79.0868 29.4046 79.0868 29.0046C79.0868 28.6046 79.0102 28.268 78.8568 27.9946C78.7035 27.7146 78.5002 27.5046 78.2468 27.3646C77.9935 27.2246 77.7202 27.1546 77.4268 27.1546C77.1335 27.1546 76.8602 27.2246 76.6068 27.3646C76.3602 27.5046 76.1635 27.7146 76.0168 27.9946C75.8702 28.268 75.7968 28.6046 75.7968 29.0046C75.7968 29.598 75.9468 30.058 76.2468 30.3846C76.5535 30.7046 76.9368 30.8646 77.3968 30.8646ZM88.7838 26.2546L87.0738 31.7646H85.8738L84.7638 27.6946L83.6538 31.7646H82.4538L80.7338 26.2546H81.8938L83.0438 30.6846L84.2138 26.2546H85.4038L86.5238 30.6646L87.6638 26.2546H88.7838ZM94.6857 28.8746C94.6857 29.0813 94.6724 29.268 94.6457 29.4346H90.4357C90.4691 29.8746 90.6324 30.228 90.9257 30.4946C91.2191 30.7613 91.5791 30.8946 92.0057 30.8946C92.6191 30.8946 93.0524 30.638 93.3057 30.1246H94.5357C94.3691 30.6313 94.0657 31.048 93.6257 31.3746C93.1924 31.6946 92.6524 31.8546 92.0057 31.8546C91.4791 31.8546 91.0057 31.738 90.5857 31.5046C90.1724 31.2646 89.8457 30.9313 89.6057 30.5046C89.3724 30.0713 89.2557 29.5713 89.2557 29.0046C89.2557 28.438 89.3691 27.9413 89.5957 27.5146C89.8291 27.0813 90.1524 26.748 90.5657 26.5146C90.9857 26.2813 91.4657 26.1646 92.0057 26.1646C92.5257 26.1646 92.9891 26.278 93.3957 26.5046C93.8024 26.7313 94.1191 27.0513 94.3457 27.4646C94.5724 27.8713 94.6857 28.3413 94.6857 28.8746ZM93.4957 28.5146C93.4891 28.0946 93.3391 27.758 93.0457 27.5046C92.7524 27.2513 92.3891 27.1246 91.9557 27.1246C91.5624 27.1246 91.2257 27.2513 90.9457 27.5046C90.6657 27.7513 90.4991 28.088 90.4457 28.5146H93.4957ZM96.9476 27.0546C97.1143 26.7746 97.3343 26.558 97.6076 26.4046C97.8876 26.2446 98.2176 26.1646 98.5976 26.1646V27.3446H98.3076C97.861 27.3446 97.521 27.458 97.2876 27.6846C97.061 27.9113 96.9476 28.3046 96.9476 28.8646V31.7646H95.8076V26.2546H96.9476V27.0546ZM129.617 26.8146C129.437 26.468 129.187 26.208 128.867 26.0346C128.547 25.8546 128.177 25.7646 127.757 25.7646C127.297 25.7646 126.887 25.868 126.527 26.0746C126.167 26.2813 125.884 26.5746 125.677 26.9546C125.477 27.3346 125.377 27.7746 125.377 28.2746C125.377 28.7746 125.477 29.218 125.677 29.6046C125.884 29.9846 126.167 30.278 126.527 30.4846C126.887 30.6913 127.297 30.7946 127.757 30.7946C128.377 30.7946 128.88 30.6213 129.267 30.2746C129.654 29.928 129.89 29.458 129.977 28.8646H127.367V27.9546H131.197V28.8446C131.124 29.3846 130.93 29.8813 130.617 30.3346C130.31 30.788 129.907 31.1513 129.407 31.4246C128.914 31.6913 128.364 31.8246 127.757 31.8246C127.104 31.8246 126.507 31.6746 125.967 31.3746C125.427 31.068 124.997 30.6446 124.677 30.1046C124.364 29.5646 124.207 28.9546 124.207 28.2746C124.207 27.5946 124.364 26.9846 124.677 26.4446C124.997 25.9046 125.427 25.4846 125.967 25.1846C126.514 24.878 127.11 24.7246 127.757 24.7246C128.497 24.7246 129.154 24.908 129.727 25.2746C130.307 25.6346 130.727 26.148 130.987 26.8146H129.617ZM131.941 28.9846C131.941 28.4313 132.055 27.9413 132.281 27.5146C132.515 27.088 132.828 26.758 133.221 26.5246C133.621 26.2846 134.061 26.1646 134.541 26.1646C134.975 26.1646 135.351 26.2513 135.671 26.4246C135.998 26.5913 136.258 26.8013 136.451 27.0546V26.2546H137.601V31.7646H136.451V30.9446C136.258 31.2046 135.995 31.4213 135.661 31.5946C135.328 31.768 134.948 31.8546 134.521 31.8546C134.048 31.8546 133.615 31.7346 133.221 31.4946C132.828 31.248 132.515 30.908 132.281 30.4746C132.055 30.0346 131.941 29.538 131.941 28.9846ZM136.451 29.0046C136.451 28.6246 136.371 28.2946 136.211 28.0146C136.058 27.7346 135.855 27.5213 135.601 27.3746C135.348 27.228 135.075 27.1546 134.781 27.1546C134.488 27.1546 134.215 27.228 133.961 27.3746C133.708 27.5146 133.501 27.7246 133.341 28.0046C133.188 28.278 133.111 28.6046 133.111 28.9846C133.111 29.3646 133.188 29.698 133.341 29.9846C133.501 30.2713 133.708 30.4913 133.961 30.6446C134.221 30.7913 134.495 30.8646 134.781 30.8646C135.075 30.8646 135.348 30.7913 135.601 30.6446C135.855 30.498 136.058 30.2846 136.211 30.0046C136.371 29.718 136.451 29.3846 136.451 29.0046ZM141.099 31.8546C140.665 31.8546 140.275 31.778 139.929 31.6246C139.589 31.4646 139.319 31.2513 139.119 30.9846C138.919 30.7113 138.812 30.408 138.799 30.0746H139.979C139.999 30.308 140.109 30.5046 140.309 30.6646C140.515 30.818 140.772 30.8946 141.079 30.8946C141.399 30.8946 141.645 30.8346 141.819 30.7146C141.999 30.588 142.089 30.428 142.089 30.2346C142.089 30.028 141.989 29.8746 141.789 29.7746C141.595 29.6746 141.285 29.5646 140.859 29.4446C140.445 29.3313 140.109 29.2213 139.849 29.1146C139.589 29.008 139.362 28.8446 139.169 28.6246C138.982 28.4046 138.889 28.1146 138.889 27.7546C138.889 27.4613 138.975 27.1946 139.149 26.9546C139.322 26.708 139.569 26.5146 139.889 26.3746C140.215 26.2346 140.589 26.1646 141.009 26.1646C141.635 26.1646 142.139 26.3246 142.519 26.6446C142.905 26.958 143.112 27.388 143.139 27.9346H141.999C141.979 27.688 141.879 27.4913 141.699 27.3446C141.519 27.198 141.275 27.1246 140.969 27.1246C140.669 27.1246 140.439 27.1813 140.279 27.2946C140.119 27.408 140.039 27.558 140.039 27.7446C140.039 27.8913 140.092 28.0146 140.199 28.1146C140.305 28.2146 140.435 28.2946 140.589 28.3546C140.742 28.408 140.969 28.478 141.269 28.5646C141.669 28.6713 141.995 28.7813 142.249 28.8946C142.509 29.0013 142.732 29.1613 142.919 29.3746C143.105 29.588 143.202 29.8713 143.209 30.2246C143.209 30.538 143.122 30.818 142.949 31.0646C142.775 31.3113 142.529 31.5046 142.209 31.6446C141.895 31.7846 141.525 31.8546 141.099 31.8546Z" fill="#333333"/>
<path d="M103.383 30.8446H105.733V31.7646H102.243V24.8146H103.383V30.8446ZM107.267 25.5246C107.06 25.5246 106.887 25.4546 106.747 25.3146C106.607 25.1746 106.537 25.0013 106.537 24.7946C106.537 24.588 106.607 24.4146 106.747 24.2746C106.887 24.1346 107.06 24.0646 107.267 24.0646C107.467 24.0646 107.637 24.1346 107.777 24.2746C107.917 24.4146 107.987 24.588 107.987 24.7946C107.987 25.0013 107.917 25.1746 107.777 25.3146C107.637 25.4546 107.467 25.5246 107.267 25.5246ZM107.827 26.2546V31.7646H106.687V26.2546H107.827ZM112.103 26.1646C112.537 26.1646 112.923 26.2546 113.263 26.4346C113.61 26.6146 113.88 26.8813 114.073 27.2346C114.267 27.588 114.363 28.0146 114.363 28.5146V31.7646H113.233V28.6846C113.233 28.1913 113.11 27.8146 112.863 27.5546C112.617 27.288 112.28 27.1546 111.853 27.1546C111.427 27.1546 111.087 27.288 110.833 27.5546C110.587 27.8146 110.463 28.1913 110.463 28.6846V31.7646H109.323V26.2546H110.463V26.8846C110.65 26.658 110.887 26.4813 111.173 26.3546C111.467 26.228 111.777 26.1646 112.103 26.1646ZM120.867 28.8746C120.867 29.0813 120.854 29.268 120.827 29.4346H116.617C116.651 29.8746 116.814 30.228 117.107 30.4946C117.401 30.7613 117.761 30.8946 118.187 30.8946C118.801 30.8946 119.234 30.638 119.487 30.1246H120.717C120.551 30.6313 120.247 31.048 119.807 31.3746C119.374 31.6946 118.834 31.8546 118.187 31.8546C117.661 31.8546 117.187 31.738 116.767 31.5046C116.354 31.2646 116.027 30.9313 115.787 30.5046C115.554 30.0713 115.437 29.5713 115.437 29.0046C115.437 28.438 115.551 27.9413 115.777 27.5146C116.011 27.0813 116.334 26.748 116.747 26.5146C117.167 26.2813 117.647 26.1646 118.187 26.1646C118.707 26.1646 119.171 26.278 119.577 26.5046C119.984 26.7313 120.301 27.0513 120.527 27.4646C120.754 27.8713 120.867 28.3413 120.867 28.8746ZM119.677 28.5146C119.671 28.0946 119.521 27.758 119.227 27.5046C118.934 27.2513 118.571 27.1246 118.137 27.1246C117.744 27.1246 117.407 27.2513 117.127 27.5046C116.847 27.7513 116.681 28.088 116.627 28.5146H119.677Z" fill="#E9AB3C"/>
<path d="M68.2596 39.8366C68.2596 40.0486 68.2096 40.2486 68.1096 40.4366C68.0096 40.6246 67.8496 40.7786 67.6296 40.8986C67.4096 41.0146 67.1276 41.0726 66.7836 41.0726H66.0276V42.7646H65.3436V38.5946H66.7836C67.1036 38.5946 67.3736 38.6506 67.5936 38.7626C67.8176 38.8706 67.9836 39.0186 68.0916 39.2066C68.2036 39.3946 68.2596 39.6046 68.2596 39.8366ZM66.7836 40.5146C67.0436 40.5146 67.2376 40.4566 67.3656 40.3406C67.4936 40.2206 67.5576 40.0526 67.5576 39.8366C67.5576 39.3806 67.2996 39.1526 66.7836 39.1526H66.0276V40.5146H66.7836ZM70.3459 42.8186C70.0339 42.8186 69.7519 42.7486 69.4999 42.6086C69.2479 42.4646 69.0499 42.2646 68.9059 42.0086C68.7619 41.7486 68.6899 41.4486 68.6899 41.1086C68.6899 40.7726 68.7639 40.4746 68.9119 40.2146C69.0599 39.9546 69.2619 39.7546 69.5179 39.6146C69.7739 39.4746 70.0599 39.4046 70.3759 39.4046C70.6919 39.4046 70.9779 39.4746 71.2339 39.6146C71.4899 39.7546 71.6919 39.9546 71.8399 40.2146C71.9879 40.4746 72.0619 40.7726 72.0619 41.1086C72.0619 41.4446 71.9859 41.7426 71.8339 42.0026C71.6819 42.2626 71.4739 42.4646 71.2099 42.6086C70.9499 42.7486 70.6619 42.8186 70.3459 42.8186ZM70.3459 42.2246C70.5219 42.2246 70.6859 42.1826 70.8379 42.0986C70.9939 42.0146 71.1199 41.8886 71.2159 41.7206C71.3119 41.5526 71.3599 41.3486 71.3599 41.1086C71.3599 40.8686 71.3139 40.6666 71.2219 40.5026C71.1299 40.3346 71.0079 40.2086 70.8559 40.1246C70.7039 40.0406 70.5399 39.9986 70.3639 39.9986C70.1879 39.9986 70.0239 40.0406 69.8719 40.1246C69.7239 40.2086 69.6059 40.3346 69.5179 40.5026C69.4299 40.6666 69.3859 40.8686 69.3859 41.1086C69.3859 41.4646 69.4759 41.7406 69.6559 41.9366C69.8399 42.1286 70.0699 42.2246 70.3459 42.2246ZM77.1781 39.4586L76.1521 42.7646H75.4321L74.7661 40.3226L74.1001 42.7646H73.3801L72.3481 39.4586H73.0441L73.7341 42.1166L74.4361 39.4586H75.1501L75.8221 42.1046L76.5061 39.4586H77.1781ZM80.7193 41.0306C80.7193 41.1546 80.7113 41.2666 80.6953 41.3666H78.1693C78.1893 41.6306 78.2873 41.8426 78.4633 42.0026C78.6393 42.1626 78.8553 42.2426 79.1113 42.2426C79.4793 42.2426 79.7393 42.0886 79.8913 41.7806H80.6293C80.5293 42.0846 80.3473 42.3346 80.0833 42.5306C79.8233 42.7226 79.4993 42.8186 79.1113 42.8186C78.7953 42.8186 78.5113 42.7486 78.2593 42.6086C78.0113 42.4646 77.8153 42.2646 77.6713 42.0086C77.5313 41.7486 77.4613 41.4486 77.4613 41.1086C77.4613 40.7686 77.5293 40.4706 77.6653 40.2146C77.8053 39.9546 77.9993 39.7546 78.2473 39.6146C78.4993 39.4746 78.7873 39.4046 79.1113 39.4046C79.4233 39.4046 79.7013 39.4726 79.9453 39.6086C80.1893 39.7446 80.3793 39.9366 80.5153 40.1846C80.6513 40.4286 80.7193 40.7106 80.7193 41.0306ZM80.0053 40.8146C80.0013 40.5626 79.9113 40.3606 79.7353 40.2086C79.5593 40.0566 79.3413 39.9806 79.0813 39.9806C78.8453 39.9806 78.6433 40.0566 78.4753 40.2086C78.3073 40.3566 78.2073 40.5586 78.1753 40.8146H80.0053ZM82.0764 39.9386C82.1764 39.7706 82.3084 39.6406 82.4724 39.5486C82.6404 39.4526 82.8384 39.4046 83.0664 39.4046V40.1126H82.8924C82.6244 40.1126 82.4204 40.1806 82.2804 40.3166C82.1444 40.4526 82.0764 40.6886 82.0764 41.0246V42.7646H81.3924V39.4586H82.0764V39.9386ZM86.7251 41.0306C86.7251 41.1546 86.7171 41.2666 86.7011 41.3666H84.1751C84.1951 41.6306 84.2931 41.8426 84.4691 42.0026C84.6451 42.1626 84.8611 42.2426 85.1171 42.2426C85.4851 42.2426 85.7451 42.0886 85.8971 41.7806H86.6351C86.5351 42.0846 86.3531 42.3346 86.0891 42.5306C85.8291 42.7226 85.5051 42.8186 85.1171 42.8186C84.8011 42.8186 84.5171 42.7486 84.2651 42.6086C84.0171 42.4646 83.8211 42.2646 83.6771 42.0086C83.5371 41.7486 83.4671 41.4486 83.4671 41.1086C83.4671 40.7686 83.5351 40.4706 83.6711 40.2146C83.8111 39.9546 84.0051 39.7546 84.2531 39.6146C84.5051 39.4746 84.7931 39.4046 85.1171 39.4046C85.4291 39.4046 85.7071 39.4726 85.9511 39.6086C86.1951 39.7446 86.3851 39.9366 86.5211 40.1846C86.6571 40.4286 86.7251 40.7106 86.7251 41.0306ZM86.0111 40.8146C86.0071 40.5626 85.9171 40.3606 85.7411 40.2086C85.5651 40.0566 85.3471 39.9806 85.0871 39.9806C84.8511 39.9806 84.6491 40.0566 84.4811 40.2086C84.3131 40.3566 84.2131 40.5586 84.1811 40.8146H86.0111ZM87.1702 41.0966C87.1702 40.7646 87.2382 40.4706 87.3742 40.2146C87.5142 39.9586 87.7022 39.7606 87.9382 39.6206C88.1782 39.4766 88.4442 39.4046 88.7362 39.4046C88.9522 39.4046 89.1642 39.4526 89.3722 39.5486C89.5842 39.6406 89.7522 39.7646 89.8762 39.9206V38.3246H90.5662V42.7646H89.8762V42.2666C89.7642 42.4266 89.6082 42.5586 89.4082 42.6626C89.2122 42.7666 88.9862 42.8186 88.7302 42.8186C88.4422 42.8186 88.1782 42.7466 87.9382 42.6026C87.7022 42.4546 87.5142 42.2506 87.3742 41.9906C87.2382 41.7266 87.1702 41.4286 87.1702 41.0966ZM89.8762 41.1086C89.8762 40.8806 89.8282 40.6826 89.7322 40.5146C89.6402 40.3466 89.5182 40.2186 89.3662 40.1306C89.2142 40.0426 89.0502 39.9986 88.8742 39.9986C88.6982 39.9986 88.5342 40.0426 88.3822 40.1306C88.2302 40.2146 88.1062 40.3406 88.0102 40.5086C87.9182 40.6726 87.8722 40.8686 87.8722 41.0966C87.8722 41.3246 87.9182 41.5246 88.0102 41.6966C88.1062 41.8686 88.2302 42.0006 88.3822 42.0926C88.5382 42.1806 88.7022 42.2246 88.8742 42.2246C89.0502 42.2246 89.2142 42.1806 89.3662 42.0926C89.5182 42.0046 89.6402 41.8766 89.7322 41.7086C89.8282 41.5366 89.8762 41.3366 89.8762 41.1086ZM95.2552 40.6226C95.4792 40.6626 95.6692 40.7806 95.8252 40.9766C95.9812 41.1726 96.0592 41.3946 96.0592 41.6426C96.0592 41.8546 96.0032 42.0466 95.8912 42.2186C95.7832 42.3866 95.6252 42.5206 95.4172 42.6206C95.2092 42.7166 94.9672 42.7646 94.6912 42.7646H93.0232V38.5946H94.6132C94.8972 38.5946 95.1412 38.6426 95.3452 38.7386C95.5492 38.8346 95.7032 38.9646 95.8072 39.1286C95.9112 39.2886 95.9632 39.4686 95.9632 39.6686C95.9632 39.9086 95.8992 40.1086 95.7712 40.2686C95.6432 40.4286 95.4712 40.5466 95.2552 40.6226ZM93.7072 40.3466H94.5532C94.7772 40.3466 94.9512 40.2966 95.0752 40.1966C95.2032 40.0926 95.2672 39.9446 95.2672 39.7526C95.2672 39.5646 95.2032 39.4186 95.0752 39.3146C94.9512 39.2066 94.7772 39.1526 94.5532 39.1526H93.7072V40.3466ZM94.6312 42.2066C94.8632 42.2066 95.0452 42.1506 95.1772 42.0386C95.3092 41.9266 95.3752 41.7706 95.3752 41.5706C95.3752 41.3666 95.3052 41.2046 95.1652 41.0846C95.0252 40.9646 94.8392 40.9046 94.6072 40.9046H93.7072V42.2066H94.6312ZM99.7785 39.4586L97.7505 44.3186H97.0425L97.7145 42.7106L96.4125 39.4586H97.1745L98.1045 41.9786L99.0705 39.4586H99.7785ZM103.227 42.8066C102.947 42.8066 102.695 42.7586 102.471 42.6626C102.247 42.5626 102.071 42.4226 101.943 42.2426C101.815 42.0626 101.751 41.8526 101.751 41.6126H102.483C102.499 41.7926 102.569 41.9406 102.693 42.0566C102.821 42.1726 102.999 42.2306 103.227 42.2306C103.463 42.2306 103.647 42.1746 103.779 42.0626C103.911 41.9466 103.977 41.7986 103.977 41.6186C103.977 41.4786 103.935 41.3646 103.851 41.2766C103.771 41.1886 103.669 41.1206 103.545 41.0726C103.425 41.0246 103.257 40.9726 103.041 40.9166C102.769 40.8446 102.547 40.7726 102.375 40.7006C102.207 40.6246 102.063 40.5086 101.943 40.3526C101.823 40.1966 101.763 39.9886 101.763 39.7286C101.763 39.4886 101.823 39.2786 101.943 39.0986C102.063 38.9186 102.231 38.7806 102.447 38.6846C102.663 38.5886 102.913 38.5406 103.197 38.5406C103.601 38.5406 103.931 38.6426 104.187 38.8466C104.447 39.0466 104.591 39.3226 104.619 39.6746H103.863C103.851 39.5226 103.779 39.3926 103.647 39.2846C103.515 39.1766 103.341 39.1226 103.125 39.1226C102.929 39.1226 102.769 39.1726 102.645 39.2726C102.521 39.3726 102.459 39.5166 102.459 39.7046C102.459 39.8326 102.497 39.9386 102.573 40.0226C102.653 40.1026 102.753 40.1666 102.873 40.2146C102.993 40.2626 103.157 40.3146 103.365 40.3706C103.641 40.4466 103.865 40.5226 104.037 40.5986C104.213 40.6746 104.361 40.7926 104.481 40.9526C104.605 41.1086 104.667 41.3186 104.667 41.5826C104.667 41.7946 104.609 41.9946 104.493 42.1826C104.381 42.3706 104.215 42.5226 103.995 42.6386C103.779 42.7506 103.523 42.8066 103.227 42.8066ZM105.246 41.0966C105.246 40.7646 105.314 40.4706 105.45 40.2146C105.59 39.9586 105.778 39.7606 106.014 39.6206C106.254 39.4766 106.518 39.4046 106.806 39.4046C107.066 39.4046 107.292 39.4566 107.484 39.5606C107.68 39.6606 107.836 39.7866 107.952 39.9386V39.4586H108.642V42.7646H107.952V42.2726C107.836 42.4286 107.678 42.5586 107.478 42.6626C107.278 42.7666 107.05 42.8186 106.794 42.8186C106.51 42.8186 106.25 42.7466 106.014 42.6026C105.778 42.4546 105.59 42.2506 105.45 41.9906C105.314 41.7266 105.246 41.4286 105.246 41.0966ZM107.952 41.1086C107.952 40.8806 107.904 40.6826 107.808 40.5146C107.716 40.3466 107.594 40.2186 107.442 40.1306C107.29 40.0426 107.126 39.9986 106.95 39.9986C106.774 39.9986 106.61 40.0426 106.458 40.1306C106.306 40.2146 106.182 40.3406 106.086 40.5086C105.994 40.6726 105.948 40.8686 105.948 41.0966C105.948 41.3246 105.994 41.5246 106.086 41.6966C106.182 41.8686 106.306 42.0006 106.458 42.0926C106.614 42.1806 106.778 42.2246 106.95 42.2246C107.126 42.2246 107.29 42.1806 107.442 42.0926C107.594 42.0046 107.716 41.8766 107.808 41.7086C107.904 41.5366 107.952 41.3366 107.952 41.1086ZM113.543 39.4046C113.803 39.4046 114.035 39.4586 114.239 39.5666C114.447 39.6746 114.609 39.8346 114.725 40.0466C114.845 40.2586 114.905 40.5146 114.905 40.8146V42.7646H114.227V40.9166C114.227 40.6206 114.153 40.3946 114.005 40.2386C113.857 40.0786 113.655 39.9986 113.399 39.9986C113.143 39.9986 112.939 40.0786 112.787 40.2386C112.639 40.3946 112.565 40.6206 112.565 40.9166V42.7646H111.887V40.9166C111.887 40.6206 111.813 40.3946 111.665 40.2386C111.517 40.0786 111.315 39.9986 111.059 39.9986C110.803 39.9986 110.599 40.0786 110.447 40.2386C110.299 40.3946 110.225 40.6206 110.225 40.9166V42.7646H109.541V39.4586H110.225V39.8366C110.337 39.7006 110.479 39.5946 110.651 39.5186C110.823 39.4426 111.007 39.4046 111.203 39.4046C111.467 39.4046 111.703 39.4606 111.911 39.5726C112.119 39.6846 112.279 39.8466 112.391 40.0586C112.491 39.8586 112.647 39.7006 112.859 39.5846C113.071 39.4646 113.299 39.4046 113.543 39.4046ZM117.106 40.6706C117.106 40.2626 117.2 39.8966 117.388 39.5726C117.58 39.2486 117.838 38.9966 118.162 38.8166C118.49 38.6326 118.848 38.5406 119.236 38.5406C119.68 38.5406 120.074 38.6506 120.418 38.8706C120.766 39.0866 121.018 39.3946 121.174 39.7946H120.352C120.244 39.5746 120.094 39.4106 119.902 39.3026C119.71 39.1946 119.488 39.1406 119.236 39.1406C118.96 39.1406 118.714 39.2026 118.498 39.3266C118.282 39.4506 118.112 39.6286 117.988 39.8606C117.868 40.0926 117.808 40.3626 117.808 40.6706C117.808 40.9786 117.868 41.2486 117.988 41.4806C118.112 41.7126 118.282 41.8926 118.498 42.0206C118.714 42.1446 118.96 42.2066 119.236 42.2066C119.488 42.2066 119.71 42.1526 119.902 42.0446C120.094 41.9366 120.244 41.7726 120.352 41.5526H121.174C121.018 41.9526 120.766 42.2606 120.418 42.4766C120.074 42.6926 119.68 42.8006 119.236 42.8006C118.844 42.8006 118.486 42.7106 118.162 42.5306C117.838 42.3466 117.58 42.0926 117.388 41.7686C117.2 41.4446 117.106 41.0786 117.106 40.6706ZM123.408 42.8186C123.096 42.8186 122.814 42.7486 122.562 42.6086C122.31 42.4646 122.112 42.2646 121.968 42.0086C121.824 41.7486 121.752 41.4486 121.752 41.1086C121.752 40.7726 121.826 40.4746 121.974 40.2146C122.122 39.9546 122.324 39.7546 122.58 39.6146C122.836 39.4746 123.122 39.4046 123.438 39.4046C123.754 39.4046 124.04 39.4746 124.296 39.6146C124.552 39.7546 124.754 39.9546 124.902 40.2146C125.05 40.4746 125.124 40.7726 125.124 41.1086C125.124 41.4446 125.048 41.7426 124.896 42.0026C124.744 42.2626 124.536 42.4646 124.272 42.6086C124.012 42.7486 123.724 42.8186 123.408 42.8186ZM123.408 42.2246C123.584 42.2246 123.748 42.1826 123.9 42.0986C124.056 42.0146 124.182 41.8886 124.278 41.7206C124.374 41.5526 124.422 41.3486 124.422 41.1086C124.422 40.8686 124.376 40.6666 124.284 40.5026C124.192 40.3346 124.07 40.2086 123.918 40.1246C123.766 40.0406 123.602 39.9986 123.426 39.9986C123.25 39.9986 123.086 40.0406 122.934 40.1246C122.786 40.2086 122.668 40.3346 122.58 40.5026C122.492 40.6666 122.448 40.8686 122.448 41.1086C122.448 41.4646 122.538 41.7406 122.718 41.9366C122.902 42.1286 123.132 42.2246 123.408 42.2246ZM129.803 39.4046C130.063 39.4046 130.295 39.4586 130.499 39.5666C130.707 39.6746 130.869 39.8346 130.985 40.0466C131.105 40.2586 131.165 40.5146 131.165 40.8146V42.7646H130.487V40.9166C130.487 40.6206 130.413 40.3946 130.265 40.2386C130.117 40.0786 129.915 39.9986 129.659 39.9986C129.403 39.9986 129.199 40.0786 129.047 40.2386C128.899 40.3946 128.825 40.6206 128.825 40.9166V42.7646H128.147V40.9166C128.147 40.6206 128.073 40.3946 127.925 40.2386C127.777 40.0786 127.575 39.9986 127.319 39.9986C127.063 39.9986 126.859 40.0786 126.707 40.2386C126.559 40.3946 126.485 40.6206 126.485 40.9166V42.7646H125.801V39.4586H126.485V39.8366C126.597 39.7006 126.739 39.5946 126.911 39.5186C127.083 39.4426 127.267 39.4046 127.463 39.4046C127.727 39.4046 127.963 39.4606 128.171 39.5726C128.379 39.6846 128.539 39.8466 128.651 40.0586C128.751 39.8586 128.907 39.7006 129.119 39.5846C129.331 39.4646 129.559 39.4046 129.803 39.4046ZM132.719 39.9446C132.835 39.7926 132.993 39.6646 133.193 39.5606C133.393 39.4566 133.619 39.4046 133.871 39.4046C134.159 39.4046 134.421 39.4766 134.657 39.6206C134.897 39.7606 135.085 39.9586 135.221 40.2146C135.357 40.4706 135.425 40.7646 135.425 41.0966C135.425 41.4286 135.357 41.7266 135.221 41.9906C135.085 42.2506 134.897 42.4546 134.657 42.6026C134.421 42.7466 134.159 42.8186 133.871 42.8186C133.619 42.8186 133.395 42.7686 133.199 42.6686C133.003 42.5646 132.843 42.4366 132.719 42.2846V44.3366H132.035V39.4586H132.719V39.9446ZM134.729 41.0966C134.729 40.8686 134.681 40.6726 134.585 40.5086C134.493 40.3406 134.369 40.2146 134.213 40.1306C134.061 40.0426 133.897 39.9986 133.721 39.9986C133.549 39.9986 133.385 40.0426 133.229 40.1306C133.077 40.2186 132.953 40.3466 132.857 40.5146C132.765 40.6826 132.719 40.8806 132.719 41.1086C132.719 41.3366 132.765 41.5366 132.857 41.7086C132.953 41.8766 133.077 42.0046 133.229 42.0926C133.385 42.1806 133.549 42.2246 133.721 42.2246C133.897 42.2246 134.061 42.1806 134.213 42.0926C134.369 42.0006 134.493 41.8686 134.585 41.6966C134.681 41.5246 134.729 41.3246 134.729 41.0966ZM135.873 41.0966C135.873 40.7646 135.941 40.4706 136.077 40.2146C136.217 39.9586 136.405 39.7606 136.641 39.6206C136.881 39.4766 137.145 39.4046 137.433 39.4046C137.693 39.4046 137.919 39.4566 138.111 39.5606C138.307 39.6606 138.463 39.7866 138.579 39.9386V39.4586H139.269V42.7646H138.579V42.2726C138.463 42.4286 138.305 42.5586 138.105 42.6626C137.905 42.7666 137.677 42.8186 137.421 42.8186C137.137 42.8186 136.877 42.7466 136.641 42.6026C136.405 42.4546 136.217 42.2506 136.077 41.9906C135.941 41.7266 135.873 41.4286 135.873 41.0966ZM138.579 41.1086C138.579 40.8806 138.531 40.6826 138.435 40.5146C138.343 40.3466 138.221 40.2186 138.069 40.1306C137.917 40.0426 137.753 39.9986 137.577 39.9986C137.401 39.9986 137.237 40.0426 137.085 40.1306C136.933 40.2146 136.809 40.3406 136.713 40.5086C136.621 40.6726 136.575 40.8686 136.575 41.0966C136.575 41.3246 136.621 41.5246 136.713 41.6966C136.809 41.8686 136.933 42.0006 137.085 42.0926C137.241 42.1806 137.405 42.2246 137.577 42.2246C137.753 42.2246 137.917 42.1806 138.069 42.0926C138.221 42.0046 138.343 41.8766 138.435 41.7086C138.531 41.5366 138.579 41.3366 138.579 41.1086ZM141.836 39.4046C142.096 39.4046 142.328 39.4586 142.532 39.5666C142.74 39.6746 142.902 39.8346 143.018 40.0466C143.134 40.2586 143.192 40.5146 143.192 40.8146V42.7646H142.514V40.9166C142.514 40.6206 142.44 40.3946 142.292 40.2386C142.144 40.0786 141.942 39.9986 141.686 39.9986C141.43 39.9986 141.226 40.0786 141.074 40.2386C140.926 40.3946 140.852 40.6206 140.852 40.9166V42.7646H140.168V39.4586H140.852V39.8366C140.964 39.7006 141.106 39.5946 141.278 39.5186C141.454 39.4426 141.64 39.4046 141.836 39.4046ZM147.04 39.4586L145.012 44.3186H144.304L144.976 42.7106L143.674 39.4586H144.436L145.366 41.9786L146.332 39.4586H147.04Z" fill="#B6B6B6"/>
</svg>
